<?xml version="1.0" standalone="no"?>
<!DOCTYPE svg PUBLIC "-//W3C//DTD SVG 20010904//EN"
 "http://www.w3.org/TR/2001/REC-SVG-20010904/DTD/svg10.dtd">
<svg version="1.0" xmlns="http://www.w3.org/2000/svg"
 width="332.000000pt" height="332.000000pt" viewBox="0 0 332.000000 332.000000"
 preserveAspectRatio="xMidYMid meet">
<metadata>
Created by potrace 1.14, written by Peter Selinger 2001-2017
</metadata>
<g transform="translate(0.000000,332.000000) scale(0.100000,-0.100000)"
fill="#000000" stroke="none">
<path d="M1500 3314 c-381 -45 -718 -200 -982 -452 -252 -241 -420 -547 -490
-896 -33 -160 -32 -451 0 -614 33 -162 73 -278 152 -437 159 -320 416 -578
735 -735 159 -78 280 -120 439 -152 160 -33 451 -32 614 0 162 33 278 73 437
152 459 227 783 657 887 1174 33 160 32 451 0 614 -33 162 -73 278 -152 437
-227 456 -655 782 -1165 885 -97 20 -387 34 -475 24z m490 -1079 c542 -312
986 -568 987 -568 1 -1 -199 -119 -444 -262 -245 -143 -447 -265 -450 -271 -2
-6 19 -48 47 -92 l50 -82 -122 0 -123 1 -163 285 c-90 157 -162 287 -160 289
2 1 61 41 131 88 l129 85 -149 87 c-81 48 -163 97 -182 108 -27 16 -35 18 -42
6 -5 -8 -9 -216 -9 -462 l0 -449 33 19 c17 11 67 41 110 68 42 26 79 46 80 44
2 -2 26 -41 55 -86 l51 -83 -22 -14 c-12 -8 -128 -77 -257 -154 l-235 -140 -3
398 c-1 219 -1 580 0 803 l3 404 467 -271 c257 -149 467 -274 468 -277 0 -4
-69 -51 -152 -105 -84 -53 -167 -107 -185 -119 l-31 -21 49 -79 c27 -44 56
-80 64 -80 19 0 615 348 612 357 -1 4 -328 196 -727 425 l-725 418 -3 -956
c-2 -749 -5 -959 -15 -966 -6 -6 -51 -33 -99 -61 l-88 -52 0 1186 0 1186 33
-20 c17 -11 475 -275 1017 -587z"/>
</g>
</svg>
