<svg width="120" height="58" viewBox="0 0 120 58" fill="none" xmlns="http://www.w3.org/2000/svg">
<path fill-rule="evenodd" clip-rule="evenodd" d="M24 6C24 2.68629 26.6863 0 30 0H114C117.314 0 120 2.68629 120 6C120 9.31371 117.314 12 114 12H30C26.6863 12 24 9.31371 24 6ZM40 29C40 25.6863 42.6863 23 46 23H114C117.314 23 120 25.6863 120 29C120 32.3137 117.314 35 114 35H46C42.6863 35 40 32.3137 40 29ZM6 46C2.68628 46 0 48.6863 0 52C0 55.3137 2.68628 58 6 58H114C117.314 58 120 55.3137 120 52C120 48.6863 117.314 46 114 46H6Z"/>
</svg>
